{"title":"Divergent.2014.BRRip.720p.x264.AAC-PRiSTiNE [P2PDL]","uid":10667092,"size":898262423,"categoryP":"video","categoryS":"hd___movies","magnet":"?xt=urn:btih:3fb57c5f2504bf0e94c7db3bec9cad4c9efad129&amp;dn=Divergent.2014.BRRip.720p.x264.AAC-PRiSTiNE+%5BP2PDL%5D&amp;tr=udp%3A%2F%2Ftracker.openbittorrent.com%3A80&amp;tr=udp%3A%2F%2Fopen.demonii.com%3A1337&amp;tr=udp%3A%2F%2Ftracker.coppersurfer.tk%3A6969&amp;tr=udp%3A%2F%2Fexodus.desync.com%3A6969","seeders":25,"leechers":4,"uploader":"ValidusVyto","files":-1,"time":1406818393,"description":" ___    ___       ___   _____    _   _  ___   \n(  _` |  _`  _ (  _`(_   _)_ ( ) ( )(  _` \n| |_) )| (_) )(_)| (_(_) | | (_)| `| || (_(_)\n| ,__/'| ,  / | |`__   | | | || , ` ||  _)_ \n| |    | |  | |( )_) | | | | || |` || (_( )\n(_)    (_) (_)(_)`____) (_) (_)(_) (_)(____/' \n\n\n\nDivergent.2014.BRRip.720p.x264.AAC-PRiSTiNE\n\n\nGenre: Action | Adventure | Romance &lt;a href=&quot;\nhttp://www.imdb.com/title/tt1840309/&quot; rel=&quot;nofollow&quot; target=&quot;_NEW&quot;&gt;\nhttp://www.imdb.com/title/tt1840309/&lt;/a&gt;\n\n\nGeneral\nFormat                         : MPEG-4\nFile size                      : 844 MiB\nDuration                       : 2h 19mn\nOverall bit rate               : 845 Kbps\n\nVideo\nFormat                         : AVC\nDuration                       : 2h 19mn\nBit rate                       : 760 Kbps\nWidth                          : 1 280 pixels\nHeight                         : 534 pixels\nDisplay aspect ratio           : 2.40:1\nFrame rate mode                : Variable\nFrame rate                     : 23.976 fps\nBit depth                      : 8 bits\nStream size                    : 759 MiB (90%)\nWriting library                : x264 core 142 r2431 ac76440\n\nAudio\nFormat                         : AAC\nDuration                       : 2h 19mn\nBit rate mode                  : Variable\nBit rate                       : 80.0 Kbps\nChannel(s)                     : 2 channels\nChannel positions              : Front: L R\nSampling rate                  : 48.0 KHz\nStream size                    : 79.9 MiB (9%)\nLanguage                       : English\n\nSubtitle                       : Yes (English)\n &lt;a href=&quot;\nhttp://someimage.com/OKAxJsp&quot; rel=&quot;nofollow&quot; target=&quot;_NEW&quot;&gt;\nhttp://someimage.com/OKAxJsp&lt;/a&gt; &lt;a href=&quot;\nhttp://someimage.com/JEdHEIs&quot; rel=&quot;nofollow&quot; target=&quot;_NEW&quot;&gt;\nhttp://someimage.com/JEdHEIs&lt;/a&gt; &lt;a href=&quot;\nhttp://someimage.com/emQ2z14&quot; rel=&quot;nofollow&quot; target=&quot;_NEW&quot;&gt;\nhttp://someimage.com/emQ2z14&lt;/a&gt; &lt;a href=&quot;\nhttp://someimage.com/53dn6F2&quot; rel=&quot;nofollow&quot; target=&quot;_NEW&quot;&gt;\nhttp://someimage.com/53dn6F2&lt;/a&gt; &lt;a href=&quot;\nhttp://someimage.com/eDE2fGg&quot; rel=&quot;nofollow&quot; target=&quot;_NEW&quot;&gt;\nhttp://someimage.com/eDE2fGg&lt;/a&gt; &lt;a href=&quot;\nhttp://someimage.com/zFap457&quot; rel=&quot;nofollow&quot; target=&quot;_NEW&quot;&gt;\nhttp://someimage.com/zFap457&lt;/a&gt;\n\n\n----------------------------------------------------------------------------------------------------\n\n\nRecommend to you to use latest version of VLC player. Install K-Lite Codec Pack or shark007 codecs\nin case of any kind of problem in playback (For non-VLC Media Player users). Alternatively, install\nCore AVC codecs, the fastest decoder that there is coupled with Community Center Codec Pack and play\non Windows Media Player Classic. Check sample to be sure.\n\nEncoder Notes: Looking For Early Access To Anything You Can Provide DVDScr, R5, DVDR, BluRay, Direct\nAudio, Music Releases and Seedboxes. We require dedicated servers, so as to do more \nand fast releases of movies.","torrent":{"xt":"urn:btih:3fb57c5f2504bf0e94c7db3bec9cad4c9efad129","amp;dn":"Divergent.2014.BRRip.720p.x264.AAC-PRiSTiNE+%5BP2PDL%5D","amp;tr":["udp%3A%2F%2Ftracker.openbittorrent.com%3A80","udp%3A%2F%2Fopen.demonii.com%3A1337","udp%3A%2F%2Ftracker.coppersurfer.tk%3A6969","udp%3A%2F%2Fexodus.desync.com%3A6969"],"infoHash":"3fb57c5f2504bf0e94c7db3bec9cad4c9efad129","infoHashBuffer":{"type":"Buffer","data":[63,181,124,95,37,4,191,14,148,199,219,59,236,156,173,76,158,250,209,41]},"announce":[],"urlList":[]}}